#N canvas 0 23 450 300 12;
#X obj 72 13 inlet~;
#X obj 72 37 biquad~ 0 0 1 -1;
#X obj 72 61 wrap~;
#X obj 72 85 *~;
#X obj 250 43 samplerate~;
#X obj 250 15 loadbang;
#X text 110 86 internal instantaneous frequency;
#X obj 72 109 biquad~ 0 0 1 -1;
#X obj 72 254 outlet;
#X msg 10 133 clear;
#X obj 10 80 bang~;
#X obj 72 197 snapshot~;
#X text 148 179 integrated squared delta frequency;
#X obj 322 239 block~ \$1;
#X obj 99 222 / \$1;
#X obj 72 163 fexpr~ ($x1 / \$1) + $y1[-1];
#X obj 72 133 abs~;
#X obj 224 232 snapshot~;
#X obj 10 104 t b b b;
#X obj 224 256 outlet;
#X connect 0 0 1 0;
#X connect 1 0 2 0;
#X connect 2 0 3 0;
#X connect 3 0 7 0;
#X connect 3 0 17 0;
#X connect 4 0 3 1;
#X connect 5 0 4 0;
#X connect 7 0 16 0;
#X connect 9 0 15 0;
#X connect 10 0 18 0;
#X connect 11 0 14 0;
#X connect 11 0 8 0;
#X connect 15 0 11 0;
#X connect 16 0 15 0;
#X connect 17 0 19 0;
#X connect 18 0 9 0;
#X connect 18 1 11 0;
#X connect 18 2 17 0;
