#N canvas 263 127 687 362 12;
#X msg 420 44 k \$1;
#X msg 331 45 cutoff \$1;
#X floatatom 343 19 5 0 0 0 - - -;
#X floatatom 430 18 7 0 0 0 - - -;
#X floatatom 159 21 5 0 0 0 - - -;
#X obj 132 74 phasor~;
#X obj 132 102 cos~;
#X floatatom 244 21 5 0 0 0 - - -;
#X msg 234 45 frequency \$1;
#X obj 132 50 sig~ 500;
#X obj 333 104 vdpll~ 500;
#X floatatom 428 284 9 0 0 0 - - -;
#X floatatom 559 284 9 0 0 0 - - -;
#X obj 428 212 instPhase2integDeltaF 4096;
#X obj 156 215 *~;
#X obj 225 216 *~;
#X obj 156 239 dac~;
#X obj 71 141 vsl 12 100 0 1 0 0 empty empty empty 0 -9 0 10 -262144
-1 -1 1100 1;
#X obj 71 249 sig~;
#X obj 71 273 lop~ 10;
#X obj 630 278 print;
#X obj 564 242 moses 24000;
#X connect 0 0 10 0;
#X connect 1 0 10 0;
#X connect 2 0 1 0;
#X connect 3 0 0 0;
#X connect 4 0 9 0;
#X connect 5 0 6 0;
#X connect 6 0 10 0;
#X connect 6 0 14 0;
#X connect 7 0 8 0;
#X connect 8 0 10 0;
#X connect 9 0 5 0;
#X connect 10 0 15 0;
#X connect 10 1 13 0;
#X connect 13 0 11 0;
#X connect 13 1 12 0;
#X connect 13 1 21 0;
#X connect 14 0 16 0;
#X connect 15 0 16 1;
#X connect 17 0 18 0;
#X connect 18 0 19 0;
#X connect 19 0 14 1;
#X connect 19 0 15 1;
